<?xml version="1.0" standalone="yes"?>

<svg version="1.1" viewBox="0.0 0.0 128.0 128.0" fill="none" stroke="none" stroke-linecap="square" stroke-miterlimit="10" xmlns="http://www.w3.org/2000/svg" xmlns:xlink="http://www.w3.org/1999/xlink"><clipPath id="p.0"><path d="m0 0l128.0 0l0 128.0l-128.0 0l0 -128.0z" clip-rule="nonzero"></path></clipPath><g clip-path="url(#p.0)"><path fill="#000000" fill-opacity="0.0" d="m0 0l128.0 0l0 128.0l-128.0 0z" fill-rule="nonzero"></path><path fill="#475066" d="m1.007874 64.0l0 0c0 -34.78959 28.202536 -62.992126 62.992126 -62.992126l0 0c16.70655 0 32.728844 6.6366515 44.54216 18.449966c11.813316 11.813316 18.449966 27.83561 18.449966 44.54216l0 0c0 34.78959 -28.202538 62.992126 -62.992126 62.992126l0 0c-34.78959 0 -62.992126 -28.202538 -62.992126 -62.992126z" fill-rule="nonzero"></path><path fill="#7fd111" d="m39.187347 89.1696l12.406475 0l0 -21.107925l24.812954 0l0 21.107925l12.406471 0l-24.81295 21.107933z" fill-rule="nonzero"></path><path fill="#ffffff" d="m23.95312 54.25692l0 0c0 -7.8504257 6.364029 -14.214455 14.214457 -14.214455l0 0c3.769905 0 7.3854103 1.4975929 10.051136 4.1633186c2.6657257 2.6657257 4.1633186 6.281231 4.1633186 10.051136l0 0c0 7.8504295 -6.364029 14.214455 -14.214455 14.214455l0 0c-7.8504276 0 -14.214457 -6.364025 -14.214457 -14.214455z" fill-rule="nonzero"></path><path stroke="#ffffff" stroke-width="2.0" stroke-linejoin="round" stroke-linecap="butt" d="m23.95312 54.25692l0 0c0 -7.8504257 6.364029 -14.214455 14.214457 -14.214455l0 0c3.769905 0 7.3854103 1.4975929 10.051136 4.1633186c2.6657257 2.6657257 4.1633186 6.281231 4.1633186 10.051136l0 0c0 7.8504295 -6.364029 14.214455 -14.214455 14.214455l0 0c-7.8504276 0 -14.214457 -6.364025 -14.214457 -14.214455z" fill-rule="nonzero"></path><path fill="#ffffff" d="m75.61856 54.25692l0 0c0 -7.8504257 6.364029 -14.214455 14.214455 -14.214455l0 0c3.7699127 0 7.385414 1.4975929 10.05114 4.1633186c2.6657257 2.6657257 4.163315 6.281231 4.163315 10.051136l0 0c0 7.8504295 -6.3640213 14.214455 -14.214455 14.214455l0 0c-7.8504257 0 -14.214455 -6.364025 -14.214455 -14.214455z" fill-rule="nonzero"></path><path stroke="#ffffff" stroke-width="2.0" stroke-linejoin="round" stroke-linecap="butt" d="m75.61856 54.25692l0 0c0 -7.8504257 6.364029 -14.214455 14.214455 -14.214455l0 0c3.7699127 0 7.385414 1.4975929 10.05114 4.1633186c2.6657257 2.6657257 4.163315 6.281231 4.163315 10.051136l0 0c0 7.8504295 -6.3640213 14.214455 -14.214455 14.214455l0 0c-7.8504257 0 -14.214455 -6.364025 -14.214455 -14.214455z" fill-rule="nonzero"></path><path fill="#ffffff" d="m33.631298 45.297276l0 0c0 -2.5611115 2.0761948 -4.637306 4.637306 -4.637306l50.433224 0c1.2298889 0 2.4094086 0.48857117 3.279068 1.3582382c0.86966705 0.86966324 1.3582382 2.049179 1.3582382 3.279068l0 18.548668c0 2.5611153 -2.0761948 4.63731 -4.637306 4.63731l-50.433224 0c-2.5611115 0 -4.637306 -2.0761948 -4.637306 -4.63731z" fill-rule="nonzero"></path><path stroke="#ffffff" stroke-width="2.0" stroke-linejoin="round" stroke-linecap="butt" d="m33.631298 45.297276l0 0c0 -2.5611115 2.0761948 -4.637306 4.637306 -4.637306l50.433224 0c1.2298889 0 2.4094086 0.48857117 3.279068 1.3582382c0.86966705 0.86966324 1.3582382 2.049179 1.3582382 3.279068l0 18.548668c0 2.5611153 -2.0761948 4.63731 -4.637306 4.63731l-50.433224 0c-2.5611115 0 -4.637306 -2.0761948 -4.637306 -4.63731z" fill-rule="nonzero"></path><path fill="#ffffff" d="m38.960236 42.4917l0 0c0 -7.8504257 6.364029 -14.214455 14.214455 -14.214455l0 0c3.769909 0 7.3854103 1.497591 10.051136 4.1633186c2.6657295 2.6657257 4.1633186 6.281227 4.1633186 10.051136l0 0c0 7.8504257 -6.364029 14.214455 -14.214455 14.214455l0 0c-7.8504257 0 -14.214455 -6.364029 -14.214455 -14.214455z" fill-rule="nonzero"></path><path stroke="#ffffff" stroke-width="2.0" stroke-linejoin="round" stroke-linecap="butt" d="m38.960236 42.4917l0 0c0 -7.8504257 6.364029 -14.214455 14.214455 -14.214455l0 0c3.769909 0 7.3854103 1.497591 10.051136 4.1633186c2.6657295 2.6657257 4.1633186 6.281227 4.1633186 10.051136l0 0c0 7.8504257 -6.364029 14.214455 -14.214455 14.214455l0 0c-7.8504257 0 -14.214455 -6.364029 -14.214455 -14.214455z" fill-rule="nonzero"></path><path fill="#ffffff" d="m50.879833 41.218098l0 0c0 -12.97583 10.51899 -23.494818 23.494816 -23.494818l0 0c6.2312164 0 12.207214 2.47534 16.61335 6.8814735c4.406128 4.4061317 6.8814697 10.382132 6.8814697 16.613344l0 0c0 12.97583 -10.51899 23.494816 -23.49482 23.494816l0 0c-12.975826 0 -23.494816 -10.518986 -23.494816 -23.494816z" fill-rule="nonzero"></path><path stroke="#ffffff" stroke-width="2.0" stroke-linejoin="round" stroke-linecap="butt" d="m50.879833 41.218098l0 0c0 -12.97583 10.51899 -23.494818 23.494816 -23.494818l0 0c6.2312164 0 12.207214 2.47534 16.61335 6.8814735c4.406128 4.4061317 6.8814697 10.382132 6.8814697 16.613344l0 0c0 12.97583 -10.51899 23.494816 -23.49482 23.494816l0 0c-12.975826 0 -23.494816 -10.518986 -23.494816 -23.494816z" fill-rule="nonzero"></path></g></svg>

