<?xml version="1.0" standalone="yes"?>

<svg version="1.1" viewBox="0.0 0.0 128.0 128.0" fill="none" stroke="none" stroke-linecap="square" stroke-miterlimit="10" xmlns="http://www.w3.org/2000/svg" xmlns:xlink="http://www.w3.org/1999/xlink"><clipPath id="p.0"><path d="m0 0l128.0 0l0 128.0l-128.0 0l0 -128.0z" clip-rule="nonzero"></path></clipPath><g clip-path="url(#p.0)"><path fill="#000000" fill-opacity="0.0" d="m0 0l128.0 0l0 128.0l-128.0 0z" fill-rule="nonzero"></path><path fill="#475066" d="m1.007874 64.0l0 0c0 -34.78959 28.202536 -62.992126 62.992126 -62.992126l0 0c16.70655 0 32.728844 6.6366515 44.54216 18.449966c11.813316 11.813316 18.449966 27.83561 18.449966 44.54216l0 0c0 34.78959 -28.202538 62.992126 -62.992126 62.992126l0 0c-34.78959 0 -62.992126 -28.202538 -62.992126 -62.992126z" fill-rule="nonzero"></path><path fill="#4ca6c3" d="m16.755905 30.944881l94.48819 0l0 66.110245l-94.48819 0z" fill-rule="nonzero"></path><path fill="#000000" fill-opacity="0.0" d="m23.755905 43.89707l0 0c0 -1.9598503 1.5887756 -3.548626 3.5486279 -3.548626l39.516914 0c0.9411545 0 1.8437653 0.37387085 2.509262 1.0393677c0.6654968 0.6654968 1.0393677 1.5681038 1.0393677 2.5092583l0 14.194084c0 1.9598541 -1.5887756 3.548626 -3.5486298 3.548626l-39.516914 0c-1.9598522 0 -3.5486279 -1.5887718 -3.5486279 -3.548626z" fill-rule="nonzero"></path><path stroke="#ffffff" stroke-width="2.0" stroke-linejoin="round" stroke-linecap="butt" d="m23.755905 43.89707l0 0c0 -1.9598503 1.5887756 -3.548626 3.5486279 -3.548626l39.516914 0c0.9411545 0 1.8437653 0.37387085 2.509262 1.0393677c0.6654968 0.6654968 1.0393677 1.5681038 1.0393677 2.5092583l0 14.194084c0 1.9598541 -1.5887756 3.548626 -3.5486298 3.548626l-39.516914 0c-1.9598522 0 -3.5486279 -1.5887718 -3.5486279 -3.548626z" fill-rule="nonzero"></path><path fill="#000000" fill-opacity="0.0" d="m76.55905 42.07874l27.685043 0" fill-rule="nonzero"></path><path stroke="#ffffff" stroke-width="2.0" stroke-linejoin="round" stroke-linecap="butt" d="m76.55905 42.07874l27.685043 0" fill-rule="nonzero"></path><path fill="#000000" fill-opacity="0.0" d="m76.55905 45.72441l27.685043 0" fill-rule="nonzero"></path><path stroke="#ffffff" stroke-width="2.0" stroke-linejoin="round" stroke-linecap="butt" d="m76.55905 45.72441l27.685043 0" fill-rule="nonzero"></path><path fill="#000000" fill-opacity="0.0" d="m76.55905 49.37008l27.685043 0" fill-rule="nonzero"></path><path stroke="#ffffff" stroke-width="2.0" stroke-linejoin="round" stroke-linecap="butt" d="m76.55905 49.37008l27.685043 0" fill-rule="nonzero"></path><path fill="#000000" fill-opacity="0.0" d="m76.55905 52.6168l27.685043 0" fill-rule="nonzero"></path><path stroke="#ffffff" stroke-width="2.0" stroke-linejoin="round" stroke-linecap="butt" d="m76.55905 52.6168l27.685043 0" fill-rule="nonzero"></path><path fill="#000000" fill-opacity="0.0" d="m76.55905 56.262466l27.685043 0" fill-rule="nonzero"></path><path stroke="#ffffff" stroke-width="2.0" stroke-linejoin="round" stroke-linecap="butt" d="m76.55905 56.262466l27.685043 0" fill-rule="nonzero"></path><path fill="#000000" fill-opacity="0.0" d="m76.55905 59.90814l27.685043 0" fill-rule="nonzero"></path><path stroke="#ffffff" stroke-width="2.0" stroke-linejoin="round" stroke-linecap="butt" d="m76.55905 59.90814l27.685043 0" fill-rule="nonzero"></path><path fill="#000000" fill-opacity="0.0" d="m57.62992 69.910194l0 0c0 -1.9598541 1.5887756 -3.5486221 3.548626 -3.5486221l39.51692 0c0.9411545 0 1.8437653 0.37387085 2.509262 1.0393677c0.6654968 0.6654968 1.0393677 1.5681 1.0393677 2.5092545l0 14.194084c0 1.9598541 -1.5887756 3.5486298 -3.5486298 3.5486298l-39.51692 0c-1.9598503 0 -3.548626 -1.5887756 -3.548626 -3.5486298z" fill-rule="nonzero"></path><path stroke="#ffffff" stroke-width="2.0" stroke-linejoin="round" stroke-linecap="butt" d="m57.62992 69.910194l0 0c0 -1.9598541 1.5887756 -3.5486221 3.548626 -3.5486221l39.51692 0c0.9411545 0 1.8437653 0.37387085 2.509262 1.0393677c0.6654968 0.6654968 1.0393677 1.5681 1.0393677 2.5092545l0 14.194084c0 1.9598541 -1.5887756 3.5486298 -3.5486298 3.5486298l-39.51692 0c-1.9598503 0 -3.548626 -1.5887756 -3.548626 -3.5486298z" fill-rule="nonzero"></path><path fill="#000000" fill-opacity="0.0" d="m23.755905 68.09055l27.68504 0" fill-rule="nonzero"></path><path stroke="#ffffff" stroke-width="2.0" stroke-linejoin="round" stroke-linecap="butt" d="m23.755905 68.09055l27.68504 0" fill-rule="nonzero"></path><path fill="#000000" fill-opacity="0.0" d="m23.755905 71.73622l27.68504 0" fill-rule="nonzero"></path><path stroke="#ffffff" stroke-width="2.0" stroke-linejoin="round" stroke-linecap="butt" d="m23.755905 71.73622l27.68504 0" fill-rule="nonzero"></path><path fill="#000000" fill-opacity="0.0" d="m23.755905 75.38189l27.68504 0" fill-rule="nonzero"></path><path stroke="#ffffff" stroke-width="2.0" stroke-linejoin="round" stroke-linecap="butt" d="m23.755905 75.38189l27.68504 0" fill-rule="nonzero"></path><path fill="#000000" fill-opacity="0.0" d="m23.755905 78.62861l27.68504 0" fill-rule="nonzero"></path><path stroke="#ffffff" stroke-width="2.0" stroke-linejoin="round" stroke-linecap="butt" d="m23.755905 78.62861l27.68504 0" fill-rule="nonzero"></path><path fill="#000000" fill-opacity="0.0" d="m23.755905 82.27428l27.68504 0" fill-rule="nonzero"></path><path stroke="#ffffff" stroke-width="2.0" stroke-linejoin="round" stroke-linecap="butt" d="m23.755905 82.27428l27.68504 0" fill-rule="nonzero"></path><path fill="#000000" fill-opacity="0.0" d="m23.755905 85.919945l27.68504 0" fill-rule="nonzero"></path><path stroke="#ffffff" stroke-width="2.0" stroke-linejoin="round" stroke-linecap="butt" d="m23.755905 85.919945l27.68504 0" fill-rule="nonzero"></path></g></svg>

