<?xml version="1.0" standalone="yes"?>

<svg version="1.1" viewBox="0.0 0.0 128.0 128.0" fill="none" stroke="none" stroke-linecap="square" stroke-miterlimit="10" xmlns="http://www.w3.org/2000/svg" xmlns:xlink="http://www.w3.org/1999/xlink"><clipPath id="p.0"><path d="m0 0l128.0 0l0 128.0l-128.0 0l0 -128.0z" clip-rule="nonzero"></path></clipPath><g clip-path="url(#p.0)"><path fill="#000000" fill-opacity="0.0" d="m0 0l128.0 0l0 128.0l-128.0 0z" fill-rule="nonzero"></path><path fill="#475066" d="m1.007874 64.0l0 0c0 -34.78959 28.202536 -62.992126 62.992126 -62.992126l0 0c16.70655 0 32.728844 6.6366515 44.54216 18.449966c11.813316 11.813316 18.449966 27.83561 18.449966 44.54216l0 0c0 34.78959 -28.202538 62.992126 -62.992126 62.992126l0 0c-34.78959 0 -62.992126 -28.202538 -62.992126 -62.992126z" fill-rule="nonzero"></path><path fill="#7fd111" d="m49.889763 64.42529l0 0c0 -2.5976753 2.1058311 -4.7035065 4.7035065 -4.7035065l18.813461 0l0 0c1.2474442 0 2.4438019 0.49554443 3.325882 1.3776245c0.88207245 0.88207626 1.3776245 2.078434 1.3776245 3.325882l0 31.758339c0 2.5976791 -2.105835 4.7035065 -4.7035065 4.7035065l-18.813461 0c-2.5976753 0 -4.7035065 -2.1058273 -4.7035065 -4.7035065z" fill-rule="nonzero"></path><path fill="#4ca6c3" d="m14.727035 45.67201l0 0c0 -2.5976715 2.1058302 -4.7035065 4.7035055 -4.7035065l18.81346 0l0 0c1.247448 0 2.4438019 0.49554825 3.325882 1.3776283c0.88207626 0.88207626 1.3776245 2.078434 1.3776245 3.3258781l0 50.4985c0 2.5976791 -2.1058311 4.7035065 -4.7035065 4.7035065l-18.81346 0c-2.5976753 0 -4.7035055 -2.1058273 -4.7035055 -4.7035065z" fill-rule="nonzero"></path><path fill="#ed9500" d="m85.05249 33.83474l0 0c0 -2.5976753 2.105835 -4.7035065 4.7035065 -4.7035065l18.813461 0l0 0c1.2474518 0 2.4438019 0.49554634 3.325882 1.3776245c0.8820801 0.8820801 1.3776245 2.078434 1.3776245 3.325882l0 62.372513c0 2.5976791 -2.1058273 4.7035065 -4.7035065 4.7035065l-18.813461 0c-2.5976715 0 -4.7035065 -2.1058273 -4.7035065 -4.7035065z" fill-rule="nonzero"></path></g></svg>

