<?xml version="1.0" standalone="yes"?>

<svg version="1.1" viewBox="0.0 0.0 128.0 128.0" fill="none" stroke="none" stroke-linecap="square" stroke-miterlimit="10" xmlns="http://www.w3.org/2000/svg" xmlns:xlink="http://www.w3.org/1999/xlink"><clipPath id="p.0"><path d="m0 0l128.0 0l0 128.0l-128.0 0l0 -128.0z" clip-rule="nonzero"></path></clipPath><g clip-path="url(#p.0)"><path fill="#000000" fill-opacity="0.0" d="m0 0l128.0 0l0 128.0l-128.0 0z" fill-rule="nonzero"></path><path fill="#475066" d="m1.007874 64.0l0 0c0 -34.78959 28.202536 -62.992126 62.992126 -62.992126l0 0c16.70655 0 32.728844 6.6366515 44.54216 18.449966c11.813316 11.813316 18.449966 27.83561 18.449966 44.54216l0 0c0 34.78959 -28.202538 62.992126 -62.992126 62.992126l0 0c-34.78959 0 -62.992126 -28.202538 -62.992126 -62.992126z" fill-rule="nonzero"></path><path fill="#7fd111" d="m19.223974 88.755035l0 -29.313614c0 -16.18946 13.124151 -29.313614 29.313616 -29.313614l20.938293 0l0 -8.375319l16.75064 16.750635l-16.75064 16.750637l0 -8.375317l-20.938293 0l0 0c-6.938343 0 -12.562977 5.6246376 -12.562977 12.562977l0 29.313614z" fill-rule="nonzero"></path><path fill="#4ca6c3" d="m108.775314 39.24354l0 29.313618c0 16.18946 -13.124153 29.313614 -29.313614 29.313614l-20.938293 0l0 8.375313l-16.750637 -16.750633l16.750637 -16.75064l0 8.37532l20.938293 0l0 0c6.938339 0 12.562981 -5.624634 12.562981 -12.562973l0 -29.313618z" fill-rule="nonzero"></path></g></svg>

