<?xml version="1.0" standalone="yes"?>

<svg version="1.1" viewBox="0.0 0.0 128.0 128.0" fill="none" stroke="none" stroke-linecap="square" stroke-miterlimit="10" xmlns="http://www.w3.org/2000/svg" xmlns:xlink="http://www.w3.org/1999/xlink"><clipPath id="p.0"><path d="m0 0l128.0 0l0 128.0l-128.0 0l0 -128.0z" clip-rule="nonzero"></path></clipPath><g clip-path="url(#p.0)"><path fill="#000000" fill-opacity="0.0" d="m0 0l128.0 0l0 128.0l-128.0 0z" fill-rule="nonzero"></path><path fill="#475066" d="m1.007874 64.0l0 0c0 -34.78959 28.202536 -62.992126 62.992126 -62.992126l0 0c16.70655 0 32.728844 6.6366515 44.54216 18.449966c11.813316 11.813316 18.449966 27.83561 18.449966 44.54216l0 0c0 34.78959 -28.202538 62.992126 -62.992126 62.992126l0 0c-34.78959 0 -62.992126 -28.202538 -62.992126 -62.992126z" fill-rule="nonzero"></path><path fill="#ffffff" d="m10.188976 64.0l0 0c0 -24.45708 24.092014 -44.283463 53.811024 -44.283463l0 0c29.71901 0 53.81102 19.826384 53.81102 44.283463l0 0c0 24.457085 -24.09201 44.283463 -53.81102 44.283463l0 0c-29.71901 0 -53.811024 -19.826378 -53.811024 -44.283463z" fill-rule="nonzero"></path><path fill="#7fd111" d="m29.496576 64.0001l0 0c0 -19.05577 15.447752 -34.503525 34.503525 -34.503525l0 0c9.150902 0 17.92701 3.6351833 24.397675 10.105848c6.470665 6.470665 10.105843 15.246769 10.105843 24.397675l0 0c0 19.05577 -15.447746 34.503517 -34.503517 34.503517l0 0c-19.05577 0 -34.503525 -15.447746 -34.503525 -34.503517zm6.005682 0l0 0c0 15.738922 12.758919 28.49784 28.49784 28.49784c15.738922 0 28.49784 -12.758919 28.49784 -28.49784l0 0c0 -15.738922 -12.758919 -28.49784 -28.49784 -28.49784l0 0c-15.738922 0 -28.49784 12.758919 -28.49784 28.49784z" fill-rule="nonzero"></path><path fill="#000000" d="m35.060226 63.991196l0 0c0 -15.729858 12.889069 -28.481426 28.78854 -28.481426l0 0c7.6351967 0 14.957676 3.0007133 20.356571 8.342014c5.398903 5.341305 8.431969 12.585667 8.431969 20.139412l0 0c0 15.729858 -12.889069 28.48143 -28.78854 28.48143l0 0c-15.899471 0 -28.78854 -12.751572 -28.78854 -28.48143z" fill-rule="nonzero"></path><path fill="#ffffff" d="m65.29977 56.491398l0 0c0 -3.7462578 3.0668335 -6.7831993 6.8499603 -6.7831993l0 0c1.8167267 0 3.559044 0.71465683 4.8436584 1.9867516c1.2846146 1.2720985 2.0063095 2.9974327 2.0063095 4.7964478l0 0c0 3.7462578 -3.0668335 6.7831993 -6.849968 6.7831993l0 0c-3.7831268 0 -6.8499603 -3.0369415 -6.8499603 -6.7831993z" fill-rule="nonzero"></path></g></svg>

